<svg width="122" height="87" viewBox="0 0 122 87" fill="none" xmlns="http://www.w3.org/2000/svg">
<path d="M35.8196 45.1491C35.8196 44.5891 35.5996 44.1025 35.1596 43.6891C34.7329 43.2758 34.1262 43.0691 33.3396 43.0691C32.6729 43.0691 32.1462 43.2091 31.7596 43.4891C31.3729 43.7558 31.1796 44.1225 31.1796 44.5891C31.1796 44.8291 31.2262 45.0491 31.3196 45.2491C31.4129 45.4358 31.5729 45.6091 31.7996 45.7691C32.0396 45.9158 32.3462 46.0491 32.7196 46.1691C33.1062 46.2891 33.5929 46.4025 34.1796 46.5091C35.6462 46.7758 36.7662 47.2225 37.5396 47.8491C38.3129 48.4758 38.6996 49.4025 38.6996 50.6291V50.8691C38.6996 51.5225 38.5796 52.1158 38.3396 52.6491C38.1129 53.1691 37.7796 53.6158 37.3396 53.9891C36.8996 54.3625 36.3662 54.6491 35.7396 54.8491C35.1129 55.0491 34.4062 55.1491 33.6196 55.1491C32.6996 55.1491 31.8862 55.0225 31.1796 54.7691C30.4862 54.5025 29.9062 54.1425 29.4396 53.6891C28.9729 53.2225 28.6196 52.6825 28.3796 52.0691C28.1396 51.4425 28.0196 50.7625 28.0196 50.0291V49.4291H30.6596V49.9091C30.6596 50.7491 30.8996 51.4225 31.3796 51.9291C31.8729 52.4225 32.6329 52.6691 33.6596 52.6691C34.4596 52.6691 35.0529 52.4958 35.4396 52.1491C35.8262 51.8025 36.0196 51.3891 36.0196 50.9091C36.0196 50.6825 35.9796 50.4691 35.8996 50.2691C35.8196 50.0558 35.6796 49.8691 35.4796 49.7091C35.2796 49.5358 35.0062 49.3825 34.6596 49.2491C34.3129 49.1158 33.8729 49.0025 33.3396 48.9091C32.6329 48.7891 31.9862 48.6358 31.3996 48.4491C30.8129 48.2491 30.2996 47.9891 29.8596 47.6691C29.4329 47.3491 29.0996 46.9491 28.8596 46.4691C28.6196 45.9891 28.4996 45.4025 28.4996 44.7091V44.5891C28.4996 44.0158 28.6129 43.4891 28.8396 43.0091C29.0796 42.5158 29.4062 42.0891 29.8196 41.7291C30.2462 41.3691 30.7529 41.0891 31.3396 40.8891C31.9396 40.6891 32.6062 40.5891 33.3396 40.5891C34.1662 40.5891 34.8996 40.7091 35.5396 40.9491C36.1796 41.1758 36.7129 41.4891 37.1396 41.8891C37.5796 42.2891 37.9062 42.7491 38.1196 43.2691C38.3462 43.7891 38.4596 44.3358 38.4596 44.9091V45.6291H35.8196V45.1491ZM43.1057 58.8691H40.5857V44.9491H43.1057V46.3891H43.4657C43.7323 45.8425 44.119 45.4225 44.6257 45.1291C45.1323 44.8225 45.779 44.6691 46.5657 44.6691C47.1523 44.6691 47.7057 44.7825 48.2257 45.0091C48.759 45.2358 49.219 45.5691 49.6057 46.0091C50.0057 46.4358 50.319 46.9625 50.5457 47.5891C50.7857 48.2158 50.9057 48.9291 50.9057 49.7291V50.0891C50.9057 50.9025 50.7923 51.6225 50.5657 52.2491C50.339 52.8758 50.0323 53.4091 49.6457 53.8491C49.259 54.2758 48.799 54.6025 48.2657 54.8291C47.7457 55.0425 47.179 55.1491 46.5657 55.1491C46.1123 55.1491 45.719 55.1025 45.3857 55.0091C45.0523 54.9158 44.759 54.7891 44.5057 54.6291C44.2657 54.4691 44.059 54.2891 43.8857 54.0891C43.7257 53.8758 43.5857 53.6558 43.4657 53.4291H43.1057V58.8691ZM45.7457 52.7491C46.5323 52.7491 47.1657 52.5091 47.6457 52.0291C48.139 51.5358 48.3857 50.8691 48.3857 50.0291V49.7891C48.3857 48.9491 48.139 48.2891 47.6457 47.8091C47.1657 47.3158 46.5323 47.0691 45.7457 47.0691C44.959 47.0691 44.319 47.3225 43.8257 47.8291C43.3457 48.3225 43.1057 48.9758 43.1057 49.7891V50.0291C43.1057 50.8425 43.3457 51.5025 43.8257 52.0091C44.319 52.5025 44.959 52.7491 45.7457 52.7491ZM59.7717 53.4291C59.5051 54.0558 59.1317 54.5025 58.6517 54.7691C58.1717 55.0225 57.6117 55.1491 56.9717 55.1491C56.3717 55.1491 55.8051 55.0358 55.2717 54.8091C54.7517 54.5825 54.2917 54.2491 53.8917 53.8091C53.4917 53.3691 53.1717 52.8358 52.9317 52.2091C52.7051 51.5825 52.5917 50.8691 52.5917 50.0691V49.7491C52.5917 48.9625 52.7051 48.2558 52.9317 47.6291C53.1584 47.0025 53.4651 46.4691 53.8517 46.0291C54.2384 45.5891 54.6851 45.2558 55.1917 45.0291C55.7117 44.7891 56.2651 44.6691 56.8517 44.6691C57.5584 44.6691 58.1251 44.7891 58.5517 45.0291C58.9917 45.2691 59.3384 45.6425 59.5917 46.1491H59.9517V44.9491H62.4717V51.8691C62.4717 52.2691 62.6517 52.4691 63.0117 52.4691H63.3917V54.8691H61.6717C61.2184 54.8691 60.8451 54.7358 60.5517 54.4691C60.2717 54.2025 60.1317 53.8558 60.1317 53.4291H59.7717ZM57.5317 52.7491C58.2651 52.7491 58.8517 52.5091 59.2917 52.0291C59.7317 51.5358 59.9517 50.8691 59.9517 50.0291V49.7891C59.9517 48.9491 59.7317 48.2891 59.2917 47.8091C58.8517 47.3158 58.2651 47.0691 57.5317 47.0691C56.7984 47.0691 56.2117 47.3158 55.7717 47.8091C55.3317 48.2891 55.1117 48.9491 55.1117 49.7891V50.0291C55.1117 50.8691 55.3317 51.5358 55.7717 52.0291C56.2117 52.5091 56.7984 52.7491 57.5317 52.7491ZM75.2778 51.2291C75.0512 52.4025 74.5112 53.3491 73.6578 54.0691C72.8178 54.7891 71.6912 55.1491 70.2778 55.1491C69.5445 55.1491 68.8578 55.0358 68.2178 54.8091C67.5912 54.5825 67.0445 54.2558 66.5778 53.8291C66.1112 53.4025 65.7445 52.8758 65.4778 52.2491C65.2112 51.6225 65.0778 50.9091 65.0778 50.1091V49.8691C65.0778 49.0691 65.2112 48.3491 65.4778 47.7091C65.7445 47.0691 66.1112 46.5225 66.5778 46.0691C67.0578 45.6158 67.6112 45.2691 68.2378 45.0291C68.8778 44.7891 69.5578 44.6691 70.2778 44.6691C71.6645 44.6691 72.7845 45.0291 73.6378 45.7491C74.5045 46.4691 75.0512 47.4158 75.2778 48.5891L72.7978 49.2291C72.7178 48.6425 72.4645 48.1358 72.0378 47.7091C71.6112 47.2825 71.0112 47.0691 70.2378 47.0691C69.8778 47.0691 69.5378 47.1358 69.2178 47.2691C68.8978 47.4025 68.6178 47.5958 68.3778 47.8491C68.1378 48.0891 67.9445 48.3891 67.7978 48.7491C67.6645 49.0958 67.5978 49.4891 67.5978 49.9291V50.0491C67.5978 50.4891 67.6645 50.8825 67.7978 51.2291C67.9445 51.5625 68.1378 51.8425 68.3778 52.0691C68.6178 52.2958 68.8978 52.4691 69.2178 52.5891C69.5378 52.6958 69.8778 52.7491 70.2378 52.7491C71.0112 52.7491 71.5978 52.5558 71.9978 52.1691C72.4112 51.7825 72.6778 51.2625 72.7978 50.6091L75.2778 51.2291ZM80.0639 50.7291C80.0773 51.0225 80.1439 51.2958 80.2639 51.5491C80.3973 51.7891 80.5706 52.0025 80.7839 52.1891C81.0106 52.3625 81.2639 52.5025 81.5439 52.6091C81.8373 52.7025 82.1439 52.7491 82.4639 52.7491C83.0906 52.7491 83.5706 52.6425 83.9039 52.4291C84.2373 52.2025 84.4773 51.9358 84.6239 51.6291L86.7839 52.8291C86.6639 53.0825 86.4973 53.3491 86.2839 53.6291C86.0706 53.8958 85.7906 54.1425 85.4439 54.3691C85.1106 54.5958 84.6973 54.7825 84.2039 54.9291C83.7239 55.0758 83.1573 55.1491 82.5039 55.1491C81.7573 55.1491 81.0773 55.0291 80.4639 54.7891C79.8506 54.5491 79.3173 54.2025 78.8639 53.7491C78.4239 53.2958 78.0773 52.7425 77.8239 52.0891C77.5839 51.4358 77.4639 50.6958 77.4639 49.8691V49.7491C77.4639 48.9891 77.5906 48.2958 77.8439 47.6691C78.1106 47.0425 78.4706 46.5091 78.9239 46.0691C79.3773 45.6291 79.9039 45.2891 80.5039 45.0491C81.1173 44.7958 81.7706 44.6691 82.4639 44.6691C83.3173 44.6691 84.0506 44.8225 84.6639 45.1291C85.2773 45.4225 85.7839 45.8025 86.1839 46.2691C86.5839 46.7225 86.8773 47.2291 87.0639 47.7891C87.2506 48.3358 87.3439 48.8691 87.3439 49.3891V50.7291H80.0639ZM82.4439 46.9491C81.8039 46.9491 81.2839 47.1158 80.8839 47.4491C80.4839 47.7691 80.2239 48.1425 80.1039 48.5691H84.7839C84.7039 48.1025 84.4506 47.7158 84.0239 47.4091C83.6106 47.1025 83.0839 46.9491 82.4439 46.9491Z" fill="black"/>
<path d="M69.0872 59.204C54.6108 66.6381 40.5853 71.5348 29.6214 73.4506C24.1365 74.409 19.4465 74.6156 15.8607 74.039C12.2626 73.4604 9.88368 72.1137 8.83248 70.0668C7.78132 68.0199 8.07244 65.301 9.69861 62.0395C11.3192 58.7894 14.2202 55.0987 18.1947 51.1994C26.1397 43.405 38.2911 34.8589 52.7675 27.4248C67.2439 19.9907 81.2694 15.094 92.2333 13.1782C97.7181 12.2199 102.408 12.0124 105.993 12.5889C109.592 13.1676 111.971 14.5151 113.022 16.562C114.073 18.6089 113.782 21.3271 112.156 24.5885C110.535 27.8387 107.635 31.53 103.66 35.4294C95.715 43.2239 83.5635 51.7699 69.0872 59.204Z" stroke="url(#paint0_radial_200_22047)"/>
<path d="M69.0872 59.204C54.6108 66.6381 40.5853 71.5348 29.6214 73.4506C24.1365 74.409 19.4465 74.6156 15.8607 74.039C12.2626 73.4604 9.88368 72.1137 8.83248 70.0668C7.78132 68.0199 8.07244 65.301 9.69861 62.0395C11.3192 58.7894 14.2202 55.0987 18.1947 51.1994C26.1397 43.405 38.2911 34.8589 52.7675 27.4248C67.2439 19.9907 81.2694 15.094 92.2333 13.1782C97.7181 12.2199 102.408 12.0124 105.993 12.5889C109.592 13.1676 111.971 14.5151 113.022 16.562C114.073 18.6089 113.782 21.3271 112.156 24.5885C110.535 27.8387 107.635 31.53 103.66 35.4294C95.715 43.2239 83.5635 51.7699 69.0872 59.204Z" stroke="url(#paint1_linear_200_22047)" stroke-opacity="0.64"/>
<g filter="url(#filter0_i_200_22047)">
<path fill-rule="evenodd" clip-rule="evenodd" d="M21.154 52.0883C23.3239 52.0883 25.083 50.3231 25.083 48.1457C25.083 45.9683 23.3239 44.2031 21.154 44.2031C18.9841 44.2031 17.2251 45.9683 17.2251 48.1457C17.2251 50.3231 18.9841 52.0883 21.154 52.0883Z" fill="url(#paint2_radial_200_22047)"/>
<path fill-rule="evenodd" clip-rule="evenodd" d="M21.154 52.0883C23.3239 52.0883 25.083 50.3231 25.083 48.1457C25.083 45.9683 23.3239 44.2031 21.154 44.2031C18.9841 44.2031 17.2251 45.9683 17.2251 48.1457C17.2251 50.3231 18.9841 52.0883 21.154 52.0883Z" fill="url(#paint3_linear_200_22047)" fill-opacity="0.64"/>
</g>
<path d="M21.1538 44.4033C23.2125 44.4033 24.8832 46.078 24.8833 48.1455C24.8833 50.2131 23.2126 51.8887 21.1538 51.8887C19.0951 51.8885 17.4253 50.2131 17.4253 48.1455C17.4254 46.0781 19.0952 44.4034 21.1538 44.4033Z" stroke="url(#paint4_radial_200_22047)" stroke-width="0.4"/>
<path d="M21.1538 44.4033C23.2125 44.4033 24.8832 46.078 24.8833 48.1455C24.8833 50.2131 23.2126 51.8887 21.1538 51.8887C19.0951 51.8885 17.4253 50.2131 17.4253 48.1455C17.4254 46.0781 19.0952 44.4034 21.1538 44.4033Z" stroke="url(#paint5_linear_200_22047)" stroke-opacity="0.2" stroke-width="0.4"/>
<path d="M28.2196 21.0889H33.2996C35.0329 21.0889 36.3196 21.4955 37.1596 22.3089C37.9996 23.1089 38.4196 24.3555 38.4196 26.0489V30.1289C38.4196 31.8222 37.9996 33.0755 37.1596 33.8889C36.3196 34.6889 35.0329 35.0889 33.2996 35.0889H28.2196V32.5489H29.5396V23.6089H28.2196V21.0889ZM33.2996 32.5689C34.2196 32.5689 34.8596 32.3555 35.2196 31.9289C35.5929 31.4889 35.7796 30.8089 35.7796 29.8889V26.0489C35.7796 25.2489 35.5929 24.6422 35.2196 24.2289C34.8596 23.8155 34.2196 23.6089 33.2996 23.6089H32.1796V32.5689H33.2996ZM50.8257 30.2489C50.8257 31.0755 50.6857 31.8089 50.4057 32.4489C50.1257 33.0755 49.7457 33.6089 49.2657 34.0489C48.7857 34.4755 48.2323 34.8022 47.6057 35.0289C46.9923 35.2555 46.3457 35.3689 45.6657 35.3689C44.9857 35.3689 44.3323 35.2555 43.7057 35.0289C43.0923 34.8022 42.5457 34.4755 42.0657 34.0489C41.5857 33.6089 41.2057 33.0755 40.9257 32.4489C40.6457 31.8089 40.5057 31.0755 40.5057 30.2489V30.0089C40.5057 29.1955 40.6457 28.4755 40.9257 27.8489C41.2057 27.2089 41.5857 26.6689 42.0657 26.2289C42.5457 25.7889 43.0923 25.4555 43.7057 25.2289C44.3323 25.0022 44.9857 24.8889 45.6657 24.8889C46.3457 24.8889 46.9923 25.0022 47.6057 25.2289C48.2323 25.4555 48.7857 25.7889 49.2657 26.2289C49.7457 26.6689 50.1257 27.2089 50.4057 27.8489C50.6857 28.4755 50.8257 29.1955 50.8257 30.0089V30.2489ZM45.6657 32.9689C46.0257 32.9689 46.3657 32.9089 46.6857 32.7889C47.0057 32.6689 47.2857 32.4955 47.5257 32.2689C47.7657 32.0422 47.9523 31.7689 48.0857 31.4489C48.2323 31.1155 48.3057 30.7422 48.3057 30.3289V29.9289C48.3057 29.5155 48.2323 29.1489 48.0857 28.8289C47.9523 28.4955 47.7657 28.2155 47.5257 27.9889C47.2857 27.7622 47.0057 27.5889 46.6857 27.4689C46.3657 27.3489 46.0257 27.2889 45.6657 27.2889C45.3057 27.2889 44.9657 27.3489 44.6457 27.4689C44.3257 27.5889 44.0457 27.7622 43.8057 27.9889C43.5657 28.2155 43.3723 28.4955 43.2257 28.8289C43.0923 29.1489 43.0257 29.5155 43.0257 29.9289V30.3289C43.0257 30.7422 43.0923 31.1155 43.2257 31.4489C43.3723 31.7689 43.5657 32.0422 43.8057 32.2689C44.0457 32.4955 44.3257 32.6689 44.6457 32.7889C44.9657 32.9089 45.3057 32.9689 45.6657 32.9689ZM63.3117 35.0889H60.7917V28.1289C60.7917 27.8489 60.7184 27.6422 60.5717 27.5089C60.4384 27.3622 60.2584 27.2889 60.0317 27.2889C59.7651 27.2889 59.5517 27.3689 59.3917 27.5289C59.2451 27.6889 59.1717 27.9289 59.1717 28.2489V35.0889H56.6517V28.1289C56.6517 27.8489 56.5717 27.6422 56.4117 27.5089C56.2651 27.3622 56.0851 27.2889 55.8717 27.2889C55.6317 27.2889 55.4317 27.3689 55.2717 27.5289C55.1117 27.6889 55.0317 27.9289 55.0317 28.2489V35.0889H52.5117V25.1689H55.0317V26.1289H55.3917C55.4717 25.7689 55.6517 25.4755 55.9317 25.2489C56.2251 25.0089 56.6051 24.8889 57.0717 24.8889C57.5117 24.8889 57.8851 25.0089 58.1917 25.2489C58.4984 25.4755 58.7051 25.7689 58.8117 26.1289H59.1717C59.2784 25.7689 59.4984 25.4755 59.8317 25.2489C60.1784 25.0089 60.6051 24.8889 61.1117 24.8889C61.7784 24.8889 62.3117 25.1155 62.7117 25.5689C63.1117 26.0089 63.3117 26.6222 63.3117 27.4089V35.0889ZM72.0178 33.6489C71.7512 34.2755 71.3778 34.7222 70.8978 34.9889C70.4178 35.2422 69.8578 35.3689 69.2178 35.3689C68.6178 35.3689 68.0512 35.2555 67.5178 35.0289C66.9978 34.8022 66.5378 34.4689 66.1378 34.0289C65.7378 33.5889 65.4178 33.0555 65.1778 32.4289C64.9512 31.8022 64.8378 31.0889 64.8378 30.2889V29.9689C64.8378 29.1822 64.9512 28.4755 65.1778 27.8489C65.4045 27.2222 65.7112 26.6889 66.0978 26.2489C66.4845 25.8089 66.9312 25.4755 67.4378 25.2489C67.9578 25.0089 68.5112 24.8889 69.0978 24.8889C69.8045 24.8889 70.3712 25.0089 70.7978 25.2489C71.2378 25.4889 71.5845 25.8622 71.8378 26.3689H72.1978V25.1689H74.7178V32.0889C74.7178 32.4889 74.8978 32.6889 75.2578 32.6889H75.6378V35.0889H73.9178C73.4645 35.0889 73.0912 34.9555 72.7978 34.6889C72.5178 34.4222 72.3778 34.0755 72.3778 33.6489H72.0178ZM69.7778 32.9689C70.5112 32.9689 71.0978 32.7289 71.5378 32.2489C71.9778 31.7555 72.1978 31.0889 72.1978 30.2489V30.0089C72.1978 29.1689 71.9778 28.5089 71.5378 28.0289C71.0978 27.5355 70.5112 27.2889 69.7778 27.2889C69.0445 27.2889 68.4578 27.5355 68.0178 28.0289C67.5778 28.5089 67.3578 29.1689 67.3578 30.0089V30.2489C67.3578 31.0889 67.5778 31.7555 68.0178 32.2489C68.4578 32.7289 69.0445 32.9689 69.7778 32.9689ZM78.0239 32.6889H81.3839V27.5689H78.2639V25.1689H83.9039V32.6889H86.7839V35.0889H78.0239V32.6889ZM84.5239 22.2289C84.5239 22.4955 84.4706 22.7489 84.3639 22.9889C84.2706 23.2155 84.1373 23.4155 83.9639 23.5889C83.7906 23.7489 83.5839 23.8822 83.3439 23.9889C83.1173 24.0822 82.8773 24.1289 82.6239 24.1289C82.3573 24.1289 82.1106 24.0822 81.8839 23.9889C81.6573 23.8822 81.4573 23.7489 81.2839 23.5889C81.1106 23.4155 80.9706 23.2155 80.8639 22.9889C80.7706 22.7489 80.7239 22.4955 80.7239 22.2289C80.7239 21.9622 80.7706 21.7155 80.8639 21.4889C80.9706 21.2489 81.1106 21.0489 81.2839 20.8889C81.4573 20.7155 81.6573 20.5822 81.8839 20.4889C82.1106 20.3822 82.3573 20.3289 82.6239 20.3289C82.8773 20.3289 83.1173 20.3822 83.3439 20.4889C83.5839 20.5822 83.7906 20.7155 83.9639 20.8889C84.1373 21.0489 84.2706 21.2489 84.3639 21.4889C84.4706 21.7155 84.5239 21.9622 84.5239 22.2289ZM92.61 35.0889H90.09V25.1689H92.61V26.6489H92.97C93.1967 26.0889 93.5634 25.6555 94.07 25.3489C94.5767 25.0422 95.17 24.8889 95.85 24.8889C96.33 24.8889 96.7767 24.9689 97.19 25.1289C97.6167 25.2755 97.99 25.5089 98.31 25.8289C98.63 26.1489 98.8767 26.5555 99.05 27.0489C99.2367 27.5422 99.33 28.1289 99.33 28.8089V35.0889H96.81V29.4489C96.81 28.7422 96.6367 28.1889 96.29 27.7889C95.9567 27.3755 95.47 27.1689 94.83 27.1689C94.0834 27.1689 93.5234 27.4222 93.15 27.9289C92.79 28.4222 92.61 29.0889 92.61 29.9289V35.0889Z" fill="black"/>
<defs>
<filter id="filter0_i_200_22047" x="17.2251" y="44.2031" width="7.85791" height="7.88477" filterUnits="userSpaceOnUse" color-interpolation-filters="sRGB">
<feFlood flood-opacity="0" result="BackgroundImageFix"/>
<feBlend mode="normal" in="SourceGraphic" in2="BackgroundImageFix" result="shape"/>
<feColorMatrix in="SourceAlpha" type="matrix" values="0 0 0 0 0 0 0 0 0 0 0 0 0 0 0 0 0 0 127 0" result="hardAlpha"/>
<feOffset dx="13" dy="31"/>
<feGaussianBlur stdDeviation="2"/>
<feComposite in2="hardAlpha" operator="arithmetic" k2="-1" k3="1"/>
<feColorMatrix type="matrix" values="0 0 0 0 0 0 0 0 0 0 0 0 0 0 0 0 0 0 0.25 0"/>
<feBlend mode="normal" in2="shape" result="effect1_innerShadow_200_22047"/>
</filter>
<radialGradient id="paint0_radial_200_22047" cx="0" cy="0" r="1" gradientTransform="matrix(-75.5775 12.6044 85.1349 -62.0946 90.1205 38.338)" gradientUnits="userSpaceOnUse">
<stop stop-color="white"/>
<stop offset="0.085173" stop-color="white" stop-opacity="0.905829"/>
<stop offset="0.404491" stop-color="white" stop-opacity="0.801323"/>
<stop offset="0.404591" stop-color="white" stop-opacity="0.595409"/>
<stop offset="0.961468" stop-color="white" stop-opacity="0.29"/>
<stop offset="1" stop-color="white" stop-opacity="0"/>
<stop offset="1" stop-color="white" stop-opacity="0"/>
</radialGradient>
<linearGradient id="paint1_linear_200_22047" x1="13.6352" y1="80.5146" x2="0.140475" y2="57.915" gradientUnits="userSpaceOnUse">
<stop stop-color="#2600FC"/>
<stop offset="0.513935" stop-color="#FF1E00"/>
<stop offset="1" stop-color="#E6E6E6"/>
</linearGradient>
<radialGradient id="paint2_radial_200_22047" cx="0" cy="0" r="1" gradientTransform="matrix(4.85531 5.00545 -6.92479 3.50957 19.2753 46.2328)" gradientUnits="userSpaceOnUse">
<stop stop-color="white"/>
<stop offset="0.085173" stop-color="white" stop-opacity="0.905829"/>
<stop offset="0.404491" stop-color="white" stop-opacity="0.801323"/>
<stop offset="0.404591" stop-color="white" stop-opacity="0.595409"/>
<stop offset="0.961468" stop-color="white" stop-opacity="0.29"/>
<stop offset="1" stop-color="white" stop-opacity="0"/>
<stop offset="1" stop-color="white" stop-opacity="0"/>
</radialGradient>
<linearGradient id="paint3_linear_200_22047" x1="25.083" y1="45.6791" x2="25.083" y2="49.5028" gradientUnits="userSpaceOnUse">
<stop stop-color="#360163"/>
<stop offset="0.513935" stop-color="#9F7EFF"/>
<stop offset="1" stop-color="#1D0B1C"/>
</linearGradient>
<radialGradient id="paint4_radial_200_22047" cx="0" cy="0" r="1" gradientTransform="matrix(4.85531 5.00545 -6.92479 3.50957 19.2753 46.2328)" gradientUnits="userSpaceOnUse">
<stop stop-color="white"/>
<stop offset="0.085173" stop-color="white" stop-opacity="0.905829"/>
<stop offset="0.404491" stop-color="white" stop-opacity="0.801323"/>
<stop offset="0.404591" stop-color="white" stop-opacity="0.595409"/>
<stop offset="0.961468" stop-color="white" stop-opacity="0.29"/>
<stop offset="1" stop-color="white" stop-opacity="0"/>
<stop offset="1" stop-color="white" stop-opacity="0"/>
</radialGradient>
<linearGradient id="paint5_linear_200_22047" x1="25.083" y1="45.6791" x2="25.083" y2="49.5028" gradientUnits="userSpaceOnUse">
<stop/>
<stop offset="0.513935" stop-color="#FF1E00"/>
<stop offset="1"/>
</linearGradient>
</defs>
</svg>
