<svg width="188" height="136" viewBox="0 0 188 136" fill="none" xmlns="http://www.w3.org/2000/svg">
<path d="M50.1291 73.1501C50.1291 72.2541 49.7771 71.4755 49.0731 70.8141C48.3904 70.1528 47.4197 69.8221 46.1611 69.8221C45.0944 69.8221 44.2517 70.0461 43.6331 70.4941C43.0144 70.9208 42.7051 71.5075 42.7051 72.2541C42.7051 72.6381 42.7797 72.9901 42.9291 73.3101C43.0784 73.6088 43.3344 73.8861 43.6971 74.1421C44.0811 74.3768 44.5717 74.5901 45.1691 74.7821C45.7877 74.9741 46.5664 75.1555 47.5051 75.3261C49.8517 75.7528 51.6437 76.4675 52.8811 77.4701C54.1184 78.4728 54.7371 79.9555 54.7371 81.9181V82.3021C54.7371 83.3475 54.5451 84.2968 54.1611 85.1501C53.7984 85.9821 53.2651 86.6968 52.5611 87.2941C51.8571 87.8915 51.0037 88.3501 50.0011 88.6701C48.9984 88.9901 47.8677 89.1501 46.6091 89.1501C45.1371 89.1501 43.8357 88.9475 42.7051 88.5421C41.5957 88.1155 40.6677 87.5395 39.9211 86.8141C39.1744 86.0675 38.6091 85.2035 38.2251 84.2221C37.8411 83.2195 37.6491 82.1315 37.6491 80.9581V79.9981H41.8731V80.7661C41.8731 82.1101 42.2571 83.1875 43.0251 83.9981C43.8144 84.7875 45.0304 85.1821 46.6731 85.1821C47.9531 85.1821 48.9024 84.9048 49.5211 84.3501C50.1397 83.7955 50.4491 83.1341 50.4491 82.3661C50.4491 82.0035 50.3851 81.6621 50.2571 81.3421C50.1291 81.0008 49.9051 80.7021 49.5851 80.4461C49.2651 80.1688 48.8277 79.9235 48.2731 79.7101C47.7184 79.4968 47.0144 79.3155 46.1611 79.1661C45.0304 78.9741 43.9957 78.7288 43.0571 78.4301C42.1184 78.1101 41.2971 77.6941 40.5931 77.1821C39.9104 76.6701 39.3771 76.0301 38.9931 75.2621C38.6091 74.4941 38.4171 73.5555 38.4171 72.4461V72.2541C38.4171 71.3368 38.5984 70.4941 38.9611 69.7261C39.3451 68.9368 39.8677 68.2541 40.5291 67.6781C41.2117 67.1021 42.0224 66.6541 42.9611 66.3341C43.9211 66.0141 44.9877 65.8541 46.1611 65.8541C47.4837 65.8541 48.6571 66.0461 49.6811 66.4301C50.7051 66.7928 51.5584 67.2941 52.2411 67.9341C52.9451 68.5741 53.4677 69.3101 53.8091 70.1421C54.1717 70.9741 54.3531 71.8488 54.3531 72.7661V73.9181H50.1291V73.1501ZM61.7868 95.1021H57.7548V72.8301H61.7868V75.1341H62.3628C62.7895 74.2595 63.4082 73.5875 64.2188 73.1181C65.0295 72.6275 66.0642 72.3821 67.3228 72.3821C68.2615 72.3821 69.1468 72.5635 69.9788 72.9261C70.8322 73.2888 71.5682 73.8221 72.1868 74.5261C72.8268 75.2088 73.3282 76.0515 73.6908 77.0541C74.0748 78.0568 74.2668 79.1981 74.2668 80.4781V81.0541C74.2668 82.3555 74.0855 83.5075 73.7228 84.5101C73.3602 85.5128 72.8695 86.3661 72.2508 87.0701C71.6322 87.7528 70.8962 88.2755 70.0428 88.6381C69.2108 88.9795 68.3042 89.1501 67.3228 89.1501C66.5975 89.1501 65.9682 89.0755 65.4348 88.9261C64.9015 88.7768 64.4322 88.5741 64.0268 88.3181C63.6428 88.0621 63.3122 87.7741 63.0348 87.4541C62.7788 87.1128 62.5548 86.7608 62.3628 86.3981H61.7868V95.1021ZM66.0108 85.3101C67.2695 85.3101 68.2828 84.9261 69.0508 84.1581C69.8402 83.3688 70.2348 82.3021 70.2348 80.9581V80.5741C70.2348 79.2301 69.8402 78.1741 69.0508 77.4061C68.2828 76.6168 67.2695 76.2221 66.0108 76.2221C64.7522 76.2221 63.7282 76.6275 62.9388 77.4381C62.1708 78.2275 61.7868 79.2728 61.7868 80.5741V80.9581C61.7868 82.2595 62.1708 83.3155 62.9388 84.1261C63.7282 84.9155 64.7522 85.3101 66.0108 85.3101ZM88.4526 86.3981C88.0259 87.4008 87.4286 88.1155 86.6606 88.5421C85.8926 88.9475 84.9966 89.1501 83.9726 89.1501C83.0126 89.1501 82.1059 88.9688 81.2526 88.6061C80.4206 88.2435 79.6846 87.7101 79.0446 87.0061C78.4046 86.3021 77.8926 85.4488 77.5086 84.4461C77.1459 83.4435 76.9646 82.3021 76.9646 81.0221V80.5101C76.9646 79.2515 77.1459 78.1208 77.5086 77.1181C77.8712 76.1155 78.3619 75.2621 78.9806 74.5581C79.5992 73.8541 80.3139 73.3208 81.1246 72.9581C81.9566 72.5741 82.8419 72.3821 83.7806 72.3821C84.9112 72.3821 85.8179 72.5741 86.5006 72.9581C87.2046 73.3421 87.7592 73.9395 88.1646 74.7501H88.7406V72.8301H92.7726V83.9021C92.7726 84.5421 93.0606 84.8621 93.6366 84.8621H94.2446V88.7021H91.4926C90.7672 88.7021 90.1699 88.4888 89.7006 88.0621C89.2526 87.6355 89.0286 87.0808 89.0286 86.3981H88.4526ZM84.8686 85.3101C86.0419 85.3101 86.9806 84.9261 87.6846 84.1581C88.3886 83.3688 88.7406 82.3021 88.7406 80.9581V80.5741C88.7406 79.2301 88.3886 78.1741 87.6846 77.4061C86.9806 76.6168 86.0419 76.2221 84.8686 76.2221C83.6952 76.2221 82.7566 76.6168 82.0526 77.4061C81.3486 78.1741 80.9966 79.2301 80.9966 80.5741V80.9581C80.9966 82.3021 81.3486 83.3688 82.0526 84.1581C82.7566 84.9261 83.6952 85.3101 84.8686 85.3101ZM113.262 82.8781C112.9 84.7555 112.036 86.2701 110.67 87.4221C109.326 88.5741 107.524 89.1501 105.262 89.1501C104.089 89.1501 102.99 88.9688 101.966 88.6061C100.964 88.2435 100.089 87.7208 99.3423 87.0381C98.5957 86.3555 98.009 85.5128 97.5823 84.5101C97.1557 83.5075 96.9423 82.3661 96.9423 81.0861V80.7021C96.9423 79.4221 97.1557 78.2701 97.5823 77.2461C98.009 76.2221 98.5957 75.3475 99.3423 74.6221C100.11 73.8968 100.996 73.3421 101.998 72.9581C103.022 72.5741 104.11 72.3821 105.262 72.3821C107.481 72.3821 109.273 72.9581 110.638 74.1101C112.025 75.2621 112.9 76.7768 113.262 78.6541L109.294 79.6781C109.166 78.7395 108.761 77.9288 108.078 77.2461C107.396 76.5635 106.436 76.2221 105.198 76.2221C104.622 76.2221 104.078 76.3288 103.566 76.5421C103.054 76.7555 102.606 77.0648 102.222 77.4701C101.838 77.8541 101.529 78.3341 101.294 78.9101C101.081 79.4648 100.974 80.0941 100.974 80.7981V80.9901C100.974 81.6941 101.081 82.3235 101.294 82.8781C101.529 83.4115 101.838 83.8595 102.222 84.2221C102.606 84.5848 103.054 84.8621 103.566 85.0541C104.078 85.2248 104.622 85.3101 105.198 85.3101C106.436 85.3101 107.374 85.0008 108.014 84.3821C108.676 83.7635 109.102 82.9315 109.294 81.8861L113.262 82.8781ZM120.92 82.0781C120.941 82.5475 121.048 82.9848 121.24 83.3901C121.453 83.7741 121.731 84.1155 122.072 84.4141C122.435 84.6915 122.84 84.9155 123.288 85.0861C123.757 85.2355 124.248 85.3101 124.76 85.3101C125.763 85.3101 126.531 85.1395 127.064 84.7981C127.597 84.4355 127.981 84.0088 128.216 83.5181L131.672 85.4381C131.48 85.8435 131.213 86.2701 130.872 86.7181C130.531 87.1448 130.083 87.5395 129.528 87.9021C128.995 88.2648 128.333 88.5635 127.544 88.7981C126.776 89.0328 125.869 89.1501 124.824 89.1501C123.629 89.1501 122.541 88.9581 121.56 88.5741C120.579 88.1901 119.725 87.6355 119 86.9101C118.296 86.1848 117.741 85.2995 117.336 84.2541C116.952 83.2088 116.76 82.0248 116.76 80.7021V80.5101C116.76 79.2941 116.963 78.1848 117.368 77.1821C117.795 76.1795 118.371 75.3261 119.096 74.6221C119.821 73.9181 120.664 73.3741 121.624 72.9901C122.605 72.5848 123.651 72.3821 124.76 72.3821C126.125 72.3821 127.299 72.6275 128.28 73.1181C129.261 73.5875 130.072 74.1955 130.712 74.9421C131.352 75.6675 131.821 76.4781 132.12 77.3741C132.419 78.2488 132.568 79.1021 132.568 79.9341V82.0781H120.92ZM124.728 76.0301C123.704 76.0301 122.872 76.2968 122.232 76.8301C121.592 77.3421 121.176 77.9395 120.984 78.6221H128.472C128.344 77.8755 127.939 77.2568 127.256 76.7661C126.595 76.2755 125.752 76.0301 124.728 76.0301Z" fill="white"/>
<path d="M107.194 93.428C85.0445 104.803 63.4994 112.15 46.5817 114.845C38.1201 116.192 30.845 116.37 25.2413 115.325C19.6295 114.278 15.7861 112.024 14.0223 108.59C12.2586 105.156 12.6658 100.718 15.0846 95.5471C17.4999 90.3836 21.8836 84.5748 27.9088 78.4829C39.9553 66.3031 58.4799 53.0736 80.6299 41.6988C102.78 30.3241 124.325 22.9765 141.243 20.2823C149.704 18.9348 156.979 18.7564 162.583 19.8018C168.195 20.8488 172.039 23.1032 173.803 26.5377C175.566 29.972 175.158 34.4089 172.74 39.5798C170.324 44.7432 165.941 50.552 159.916 56.6439C147.869 68.8238 129.344 82.0533 107.194 93.428Z" stroke="url(#paint0_radial_200_22030)"/>
<path d="M107.194 93.428C85.0445 104.803 63.4994 112.15 46.5817 114.845C38.1201 116.192 30.845 116.37 25.2413 115.325C19.6295 114.278 15.7861 112.024 14.0223 108.59C12.2586 105.156 12.6658 100.718 15.0846 95.5471C17.4999 90.3836 21.8836 84.5748 27.9088 78.4829C39.9553 66.3031 58.4799 53.0736 80.6299 41.6988C102.78 30.3241 124.325 22.9765 141.243 20.2823C149.704 18.9348 156.979 18.7564 162.583 19.8018C168.195 20.8488 172.039 23.1032 173.803 26.5377C175.566 29.972 175.158 34.4089 172.74 39.5798C170.324 44.7432 165.941 50.552 159.916 56.6439C147.869 68.8238 129.344 82.0533 107.194 93.428Z" stroke="url(#paint1_linear_200_22030)" stroke-opacity="0.64"/>
<g filter="url(#filter0_i_200_22030)">
<path fill-rule="evenodd" clip-rule="evenodd" d="M28.5669 82.839C31.3661 82.839 33.6353 80.5698 33.6353 77.7706C33.6353 74.9714 31.3661 72.7021 28.5669 72.7021C25.7677 72.7021 23.4985 74.9714 23.4985 77.7706C23.4985 80.5698 25.7677 82.839 28.5669 82.839Z" fill="url(#paint2_radial_200_22030)"/>
<path fill-rule="evenodd" clip-rule="evenodd" d="M28.5669 82.839C31.3661 82.839 33.6353 80.5698 33.6353 77.7706C33.6353 74.9714 31.3661 72.7021 28.5669 72.7021C25.7677 72.7021 23.4985 74.9714 23.4985 77.7706C23.4985 80.5698 25.7677 82.839 28.5669 82.839Z" fill="url(#paint3_linear_200_22030)" fill-opacity="0.64"/>
</g>
<path d="M28.5669 72.9023C31.2556 72.9023 33.435 75.0818 33.4351 77.7705C33.4351 80.4593 31.2556 82.6387 28.5669 82.6387C25.8782 82.6386 23.6987 80.4592 23.6987 77.7705C23.6988 75.0818 25.8782 72.9024 28.5669 72.9023Z" stroke="url(#paint4_radial_200_22030)" stroke-width="0.4"/>
<path d="M28.5669 72.9023C31.2556 72.9023 33.435 75.0818 33.4351 77.7705C33.4351 80.4593 31.2556 82.6387 28.5669 82.6387C25.8782 82.6386 23.6987 80.4592 23.6987 77.7705C23.6988 75.0818 25.8782 72.9024 28.5669 72.9023Z" stroke="url(#paint5_linear_200_22030)" stroke-opacity="0.2" stroke-width="0.4"/>
<path d="M37.9691 38.3021H46.0971C48.8704 38.3021 50.9291 38.9528 52.2731 40.2541C53.6171 41.5341 54.2891 43.5288 54.2891 46.2381V52.7661C54.2891 55.4755 53.6171 57.4808 52.2731 58.7821C50.9291 60.0621 48.8704 60.7021 46.0971 60.7021H37.9691V56.6381H40.0811V42.3341H37.9691V38.3021ZM46.0971 56.6701C47.5691 56.6701 48.5931 56.3288 49.1691 55.6461C49.7664 54.9421 50.0651 53.8541 50.0651 52.3821V46.2381C50.0651 44.9581 49.7664 43.9875 49.1691 43.3261C48.5931 42.6648 47.5691 42.3341 46.0971 42.3341H44.3051V56.6701H46.0971ZM74.1388 52.9581C74.1388 54.2808 73.9148 55.4541 73.4668 56.4781C73.0188 57.4808 72.4108 58.3341 71.6428 59.0381C70.8748 59.7208 69.9895 60.2435 68.9868 60.6061C68.0055 60.9688 66.9708 61.1501 65.8828 61.1501C64.7948 61.1501 63.7495 60.9688 62.7468 60.6061C61.7655 60.2435 60.8908 59.7208 60.1228 59.0381C59.3548 58.3341 58.7468 57.4808 58.2988 56.4781C57.8508 55.4541 57.6268 54.2808 57.6268 52.9581V52.5741C57.6268 51.2728 57.8508 50.1208 58.2988 49.1181C58.7468 48.0941 59.3548 47.2301 60.1228 46.5261C60.8908 45.8221 61.7655 45.2888 62.7468 44.9261C63.7495 44.5635 64.7948 44.3821 65.8828 44.3821C66.9708 44.3821 68.0055 44.5635 68.9868 44.9261C69.9895 45.2888 70.8748 45.8221 71.6428 46.5261C72.4108 47.2301 73.0188 48.0941 73.4668 49.1181C73.9148 50.1208 74.1388 51.2728 74.1388 52.5741V52.9581ZM65.8828 57.3101C66.4588 57.3101 67.0028 57.2141 67.5148 57.0221C68.0268 56.8301 68.4748 56.5528 68.8588 56.1901C69.2428 55.8275 69.5415 55.3901 69.7548 54.8781C69.9895 54.3448 70.1068 53.7475 70.1068 53.0861V52.4461C70.1068 51.7848 69.9895 51.1981 69.7548 50.6861C69.5415 50.1528 69.2428 49.7048 68.8588 49.3421C68.4748 48.9795 68.0268 48.7021 67.5148 48.5101C67.0028 48.3181 66.4588 48.2221 65.8828 48.2221C65.3068 48.2221 64.7628 48.3181 64.2508 48.5101C63.7388 48.7021 63.2908 48.9795 62.9068 49.3421C62.5228 49.7048 62.2135 50.1528 61.9788 50.6861C61.7655 51.1981 61.6588 51.7848 61.6588 52.4461V53.0861C61.6588 53.7475 61.7655 54.3448 61.9788 54.8781C62.2135 55.3901 62.5228 55.8275 62.9068 56.1901C63.2908 56.5528 63.7388 56.8301 64.2508 57.0221C64.7628 57.2141 65.3068 57.3101 65.8828 57.3101ZM94.1166 60.7021H90.0846V49.5661C90.0846 49.1181 89.9672 48.7875 89.7326 48.5741C89.5192 48.3395 89.2312 48.2221 88.8686 48.2221C88.4419 48.2221 88.1006 48.3501 87.8446 48.6061C87.6099 48.8621 87.4926 49.2461 87.4926 49.7581V60.7021H83.4606V49.5661C83.4606 49.1181 83.3326 48.7875 83.0766 48.5741C82.8419 48.3395 82.5539 48.2221 82.2126 48.2221C81.8286 48.2221 81.5086 48.3501 81.2526 48.6061C80.9966 48.8621 80.8686 49.2461 80.8686 49.7581V60.7021H76.8366V44.8301H80.8686V46.3661H81.4446C81.5726 45.7901 81.8606 45.3208 82.3086 44.9581C82.7779 44.5741 83.3859 44.3821 84.1326 44.3821C84.8366 44.3821 85.4339 44.5741 85.9246 44.9581C86.4152 45.3208 86.7459 45.7901 86.9166 46.3661H87.4926C87.6632 45.7901 88.0152 45.3208 88.5486 44.9581C89.1032 44.5741 89.7859 44.3821 90.5966 44.3821C91.6632 44.3821 92.5166 44.7448 93.1566 45.4701C93.7966 46.1741 94.1166 47.1555 94.1166 48.4141V60.7021ZM108.046 58.3981C107.62 59.4008 107.022 60.1155 106.254 60.5421C105.486 60.9475 104.59 61.1501 103.566 61.1501C102.606 61.1501 101.7 60.9688 100.846 60.6061C100.014 60.2435 99.2783 59.7101 98.6383 59.0061C97.9983 58.3021 97.4863 57.4488 97.1023 56.4461C96.7397 55.4435 96.5583 54.3021 96.5583 53.0221V52.5101C96.5583 51.2515 96.7397 50.1208 97.1023 49.1181C97.465 48.1155 97.9557 47.2621 98.5743 46.5581C99.193 45.8541 99.9077 45.3208 100.718 44.9581C101.55 44.5741 102.436 44.3821 103.374 44.3821C104.505 44.3821 105.412 44.5741 106.094 44.9581C106.798 45.3421 107.353 45.9395 107.758 46.7501H108.334V44.8301H112.366V55.9021C112.366 56.5421 112.654 56.8621 113.23 56.8621H113.838V60.7021H111.086C110.361 60.7021 109.764 60.4888 109.294 60.0621C108.846 59.6355 108.622 59.0808 108.622 58.3981H108.046ZM104.462 57.3101C105.636 57.3101 106.574 56.9261 107.278 56.1581C107.982 55.3688 108.334 54.3021 108.334 52.9581V52.5741C108.334 51.2301 107.982 50.1741 107.278 49.4061C106.574 48.6168 105.636 48.2221 104.462 48.2221C103.289 48.2221 102.35 48.6168 101.646 49.4061C100.942 50.1741 100.59 51.2301 100.59 52.5741V52.9581C100.59 54.3021 100.942 55.3688 101.646 56.1581C102.35 56.9261 103.289 57.3101 104.462 57.3101ZM117.656 56.8621H123.032V48.6701H118.04V44.8301H127.064V56.8621H131.672V60.7021H117.656V56.8621ZM128.056 40.1261C128.056 40.5528 127.971 40.9581 127.8 41.3421C127.651 41.7048 127.437 42.0248 127.16 42.3021C126.883 42.5581 126.552 42.7715 126.168 42.9421C125.805 43.0915 125.421 43.1661 125.016 43.1661C124.589 43.1661 124.195 43.0915 123.832 42.9421C123.469 42.7715 123.149 42.5581 122.872 42.3021C122.595 42.0248 122.371 41.7048 122.2 41.3421C122.051 40.9581 121.976 40.5528 121.976 40.1261C121.976 39.6995 122.051 39.3048 122.2 38.9421C122.371 38.5581 122.595 38.2381 122.872 37.9821C123.149 37.7048 123.469 37.4915 123.832 37.3421C124.195 37.1715 124.589 37.0861 125.016 37.0861C125.421 37.0861 125.805 37.1715 126.168 37.3421C126.552 37.4915 126.883 37.7048 127.16 37.9821C127.437 38.2381 127.651 38.5581 127.8 38.9421C127.971 39.3048 128.056 39.6995 128.056 40.1261ZM140.994 60.7021H136.962V44.8301H140.994V47.1981H141.57C141.932 46.3021 142.519 45.6088 143.33 45.1181C144.14 44.6275 145.09 44.3821 146.178 44.3821C146.946 44.3821 147.66 44.5101 148.322 44.7661C149.004 45.0008 149.602 45.3741 150.114 45.8861C150.626 46.3981 151.02 47.0488 151.298 47.8381C151.596 48.6275 151.746 49.5661 151.746 50.6541V60.7021H147.714V51.6781C147.714 50.5475 147.436 49.6621 146.882 49.0221C146.348 48.3608 145.57 48.0301 144.546 48.0301C143.351 48.0301 142.455 48.4355 141.858 49.2461C141.282 50.0355 140.994 51.1021 140.994 52.4461V60.7021Z" fill="white"/>
<defs>
<filter id="filter0_i_200_22030" x="23.4985" y="72.7021" width="10.1367" height="10.1367" filterUnits="userSpaceOnUse" color-interpolation-filters="sRGB">
<feFlood flood-opacity="0" result="BackgroundImageFix"/>
<feBlend mode="normal" in="SourceGraphic" in2="BackgroundImageFix" result="shape"/>
<feColorMatrix in="SourceAlpha" type="matrix" values="0 0 0 0 0 0 0 0 0 0 0 0 0 0 0 0 0 0 127 0" result="hardAlpha"/>
<feOffset dx="13" dy="31"/>
<feGaussianBlur stdDeviation="2"/>
<feComposite in2="hardAlpha" operator="arithmetic" k2="-1" k3="1"/>
<feColorMatrix type="matrix" values="0 0 0 0 0 0 0 0 0 0 0 0 0 0 0 0 0 0 0.25 0"/>
<feBlend mode="normal" in2="shape" result="effect1_innerShadow_200_22030"/>
</filter>
<radialGradient id="paint0_radial_200_22030" cx="0" cy="0" r="1" gradientTransform="matrix(-116.429 17.5796 129.564 -96.1313 138.882 60.6013)" gradientUnits="userSpaceOnUse">
<stop stop-color="white"/>
<stop offset="0.085173" stop-color="white" stop-opacity="0.905829"/>
<stop offset="0.404491" stop-color="white" stop-opacity="0.801323"/>
<stop offset="0.404591" stop-color="white" stop-opacity="0.595409"/>
<stop offset="0.961468" stop-color="white" stop-opacity="0.29"/>
<stop offset="1" stop-color="white" stop-opacity="0"/>
<stop offset="1" stop-color="white" stop-opacity="0"/>
</radialGradient>
<linearGradient id="paint1_linear_200_22030" x1="22.0301" y1="125.278" x2="4.4334" y2="89.8292" gradientUnits="userSpaceOnUse">
<stop stop-color="#2600FC"/>
<stop offset="0.513935" stop-color="#FF1E00"/>
<stop offset="1"/>
</linearGradient>
<radialGradient id="paint2_radial_200_22030" cx="0" cy="0" r="1" gradientTransform="matrix(6.26344 6.43478 -8.93311 4.51174 26.1433 75.3114)" gradientUnits="userSpaceOnUse">
<stop stop-color="white"/>
<stop offset="0.085173" stop-color="white" stop-opacity="0.905829"/>
<stop offset="0.404491" stop-color="white" stop-opacity="0.801323"/>
<stop offset="0.404591" stop-color="white" stop-opacity="0.595409"/>
<stop offset="0.961468" stop-color="white" stop-opacity="0.29"/>
<stop offset="1" stop-color="white" stop-opacity="0"/>
<stop offset="1" stop-color="white" stop-opacity="0"/>
</radialGradient>
<linearGradient id="paint3_linear_200_22030" x1="33.6353" y1="74.5996" x2="33.6353" y2="79.5152" gradientUnits="userSpaceOnUse">
<stop stop-color="#360163"/>
<stop offset="0.513935" stop-color="#9F7EFF"/>
<stop offset="1" stop-color="#1D0B1C"/>
</linearGradient>
<radialGradient id="paint4_radial_200_22030" cx="0" cy="0" r="1" gradientTransform="matrix(6.26344 6.43478 -8.93311 4.51174 26.1433 75.3114)" gradientUnits="userSpaceOnUse">
<stop stop-color="white"/>
<stop offset="0.085173" stop-color="white" stop-opacity="0.905829"/>
<stop offset="0.404491" stop-color="white" stop-opacity="0.801323"/>
<stop offset="0.404591" stop-color="white" stop-opacity="0.595409"/>
<stop offset="0.961468" stop-color="white" stop-opacity="0.29"/>
<stop offset="1" stop-color="white" stop-opacity="0"/>
<stop offset="1" stop-color="white" stop-opacity="0"/>
</radialGradient>
<linearGradient id="paint5_linear_200_22030" x1="33.6353" y1="74.5996" x2="33.6353" y2="79.5152" gradientUnits="userSpaceOnUse">
<stop/>
<stop offset="0.513935" stop-color="#FF1E00"/>
<stop offset="1"/>
</linearGradient>
</defs>
</svg>
